# xmcd
#
# Track frame offsets: 
#        150
#        19350
#        49825
#        64037
#
# Disc length: 1285 seconds
#
# Revision: 5
# Processed by: cddbd v1.5.2PL0 Copyright (c) Steve Scherf et al.
# Submitted via: ExactAudioCopy v0.99pb5
#
DISCID=31050304
DTITLE=Sandra - Hiroshima
DYEAR=1989
DGENRE=Pop
TTITLE0=Hiroshima [Single Version]
TTITLE1=Hiroshima [Extended Version]
TTITLE2=Hiroshima [Dub Mix]
TTITLE3=Heaven Can Wait [US-Remix]
EXTD=
EXTT0=
EXTT1=
EXTT2=
EXTT3=
PLAYORDER=
